<svg xmlns="http://www.w3.org/2000/svg" xmlns:xlink="http://www.w3.org/1999/xlink" version="1.1" x="0px" y="0px" viewBox="0 0 146.068 173.72250000000003" enable-background="new 0 0 146.068 138.978" xml:space="preserve"><path d="M21.039,97.068c0,0,15.951,0.047,22.464,0.047c3.832,0,8.529,2.414,16.121,5.118c10.001,3.562,28.944,3.71,28.944,3.71  l12.094,3.681c5.512,1.423,15.064,4.49,15.064,4.49c4.062,1.303,6.146,0.522,6.783-1.447c0.661-2.042,0.162-3.917-3.829-5.854  l-14.084-5.744l-11.6-5.144c0,0,8.933,0.164,8.933-6.119c0-6.73-8.924-7.029-8.924-7.029s9.826,0.448,9.909-6.423  c0.094-7.799-9.908-7.342-9.908-7.342s9.76,0.147,9.557-7.631c-0.179-6.88-9.557-6.729-9.557-6.729  c-9.306,0-17.512-0.188-17.512-0.188c4.129-15.836,4.197-20.076,4.096-23.141C79.359,24.296,75.151,22,72.458,22  c-5.534,0-2.655,7.318-4.941,10.253c0,0-3.213,17.19-10.838,25.065c-7.193,7.43-9.393,10.112-13.349,10.227l-22.292,0.274V97.068z"/><path d="M152.144,232.338c0,0,15.727-3.292,22.098-4.645c3.748-0.796,9.031,0.169,17.062,0.848  c11.19,0.946,28.939-1.592,28.939-1.592l13.228,0.263c5.688,0.247,16.847-0.12,16.847-0.12c3.488-0.025,5.363-1.233,5.562-3.082  c0.235-2.188-1.095-4.18-5.411-4.636l-14.715-1.507l-13.231-1.644c0,0,8.771-1.695,7.467-7.841  c-1.398-6.583-10.189-5.022-10.189-5.022s9.705-1.603,8.358-8.341c-1.528-7.648-11.217-5.124-11.217-5.124s9.577-1.883,7.763-9.45  c-1.604-6.692-10.746-4.597-10.746-4.597c-9.103,1.933-17.169,3.455-17.169,3.455c0.749-16.349-0.064-20.51-0.801-23.487  c-1.686-6.825-6.279-8.198-8.913-7.638c-5.413,1.149-1.076,7.71-2.703,11.056c0,0-0.637,16.266-5.395,26.77  c-3.509,7.749-5.434,11.608-11.046,12.8l-21.862,4.923L152.144,232.338z"/><path d="M168.872,376.338c0,0,6.999-1.292,13.37-2.645c3.748-0.797,9.031,0.169,17.062,0.848c11.19,0.945,28.939-1.592,28.939-1.592  l13.228,0.262c5.688,0.247,16.847-0.119,16.847-0.119c3.488-0.025,5.363-1.232,5.562-3.082c0.235-2.188-1.095-4.18-5.411-4.637  l-14.715-1.507l-13.231-1.644c0,0,8.771-1.695,7.467-7.842c-1.398-6.583-10.189-5.021-10.189-5.021s9.705-1.604,8.358-8.342  c-1.528-7.648-11.217-5.123-11.217-5.123s9.577-1.883,7.763-9.449c-1.604-6.693-10.746-4.598-10.746-4.598  c-9.103,1.934-17.169,3.455-17.169,3.455c0.749-16.35-0.064-20.511-0.801-23.487c-1.686-6.825-6.279-8.198-8.913-7.638  c-5.413,1.149-1.076,7.709-2.703,11.055c0,0-0.637,16.266-5.395,26.771c-3.509,7.749-5.434,11.608-11.046,12.8l-13.862,2.924  L168.872,376.338z"/><path d="M-15.856,325.338c0,0,15.727,0.708,22.098-0.645c3.748-0.797,9.031,0.169,17.062,0.848  c11.19,0.945,28.939-1.592,28.939-1.592l13.228,0.262c5.688,0.247,16.847-0.119,16.847-0.119c3.488-0.025,5.363-1.232,5.562-3.082  c0.235-2.188-1.095-4.18-5.411-4.637l-14.715-1.507l-13.231-1.644c0,0,8.771-1.695,7.467-7.842  c-1.398-6.583-10.189-5.021-10.189-5.021s9.705-1.603,8.358-8.341c-1.528-7.648-11.217-5.124-11.217-5.124s9.577-1.883,7.763-9.45  c-1.604-6.692-10.746-4.597-10.746-4.597c-9.103,1.933-17.169,3.455-17.169,3.455c0.749-16.349-0.064-20.51-0.801-23.487  c-1.686-6.825-6.279-8.198-8.913-7.638c-5.413,1.149-1.076,7.71-2.703,11.056c0,0-0.637,16.266-5.395,26.77  c-3.509,7.749-5.434,11.608-11.046,12.8l-15.798-0.442L-15.856,325.338z"/><path d="M-147.669,188.292c0,0,14.609-25.926,20.526-36.49c3.476-6.218,11.271-12.372,22.062-22.771  c15.036-14.49,33.225-42.396,33.225-42.396l16.566-18.165c7.312-7.649,20.472-23.701,20.472-23.701  c4.239-4.906,4.847-9.005,2.504-11.55c-2.771-3.01-7.19-3.587-13.117,1.888L-65.569,53.84l-18.512,16.489  c0,0,8.377-14.346-1.818-20.051c-10.919-6.113-19.507,8.095-19.507,8.095s9.648-15.535-1.424-21.913  c-12.566-7.232-20.913,9.412-20.913,9.412s9.104-15.699-3.697-22.437c-11.328-5.959-19.599,9.396-19.599,9.396  c-8.452,15.096-16.211,28.244-16.211,28.244c-21.941-21.083-28.762-25.046-33.825-27.663c-11.608-6.008-19.157-1.264-21.607,3.106  c-5.021,8.978,9.469,10.952,12.152,17.327c0,0,21.967,20.822,30.827,40.348c6.536,14.403,9.632,21.724,4.425,31.032l-19.85,36.503  L-147.669,188.292z"/><text x="0" y="153.978" fill="#000000" font-size="5px" font-weight="bold" font-family="'Helvetica Neue', Helvetica, Arial-Unicode, Arial, Sans-serif">Created by andrey tetekin</text><text x="0" y="158.978" fill="#000000" font-size="5px" font-weight="bold" font-family="'Helvetica Neue', Helvetica, Arial-Unicode, Arial, Sans-serif">from the Noun Project</text></svg>