<?xml version="1.0" standalone="no"?>
<!DOCTYPE svg PUBLIC "-//W3C//DTD SVG 20010904//EN"
 "http://www.w3.org/TR/2001/REC-SVG-20010904/DTD/svg10.dtd">
<svg version="1.0" xmlns="http://www.w3.org/2000/svg"
 width="16.000000pt" height="16.000000pt" viewBox="0 0 16.000000 16.000000"
 preserveAspectRatio="xMidYMid meet">
<metadata>
Created by potrace 1.11, written by Peter Selinger 2001-2013
</metadata>
<g transform="translate(0.000000,16.000000) scale(0.003200,-0.003200)"
fill="#000000" stroke="none">
<path d="M0 2500 l0 -2500 2500 0 2500 0 0 2500 0 2500 -2500 0 -2500 0 0
-2500z m3300 2350 c0 -6 -13 -36 -29 -68 -111 -221 -198 -478 -231 -689 -34
-211 -22 -382 41 -564 52 -154 152 -317 311 -505 326 -387 360 -431 447 -577
110 -183 181 -394 206 -607 19 -155 19 -218 0 -345 -47 -327 -242 -666 -520
-907 -391 -338 -882 -486 -1329 -402 -625 119 -1195 703 -1342 1374 -27 120
-27 499 0 645 96 536 317 988 697 1430 86 100 297 312 398 400 300 262 705
522 1114 719 248 118 237 114 237 96z"/>
</g>
</svg>
